{
  "accessors": [
    {
      "bufferView": 1,
      "componentType": 5126,
      "count": 392,
      "max": [
        27.0,
        -16.05500030517578,
        -8.086999893188477
      ],
      "min": [
        23.843399047851563,
        -24.22100067138672,
        -22.038000106811523
      ],
      "type": "VEC3"
    },
    {
      "bufferView": 1,
      "byteOffset": 4704,
      "componentType": 5126,
      "count": 392,
      "max": [
        0.9257374405860901,
        0.9998936057090759,
        0.9238367080688477
      ],
      "min": [
        -0.9249213933944702,
        -1.0,
        -0.9240646958351135
      ],
      "type": "VEC3"
    },
    {
      "bufferView": 0,
      "componentType": 5125,
      "count": 1140,
      "type": "SCALAR"
    },
    {
      "bufferView": 1,
      "byteOffset": 9408,
      "componentType": 5126,
      "count": 2163,
      "max": [
        26.558000564575195,
        0.0005000000237487257,
        -5.0
      ],
      "min": [
        6.558000087738037,
        -29.49370002746582,
        -25.0
      ],
      "type": "VEC3"
    },
    {
      "bufferView": 1,
      "byteOffset": 35364,
      "componentType": 5126,
      "count": 2163,
      "max": [
        1.0,
        1.0,
        1.0
      ],
      "min": [
        -1.0,
        -1.0,
        -1.0
      ],
      "type": "VEC3"
    },
    {
      "bufferView": 0,
      "byteOffset": 4560,
      "componentType": 5125,
      "count": 9570,
      "type": "SCALAR"
    },
    {
      "bufferView": 1,
      "byteOffset": 61320,
      "componentType": 5126,
      "count": 226,
      "max": [
        26.649999618530273,
        -18.09600067138672,
        -9.404000282287598
      ],
      "min": [
        25.24209976196289,
        -22.18000030517578,
        -20.72100067138672
      ],
      "type": "VEC3"
    },
    {
      "bufferView": 1,
      "byteOffset": 64032,
      "componentType": 5126,
      "count": 226,
      "max": [
        0.9241292476654053,
        1.0,
        0.9238830208778381
      ],
      "min": [
        -0.38262709975242615,
        -1.0,
        -0.9239141345024109
      ],
      "type": "VEC3"
    },
    {
      "bufferView": 0,
      "byteOffset": 42840,
      "componentType": 5125,
      "count": 648,
      "type": "SCALAR"
    }
  ],
  "asset": {
    "extras": {
      "author": "Yo Boy (https://sketchfab.com/jratanatharathorn)",
      "license": "CC-BY-4.0 (http://creativecommons.org/licenses/by/4.0/)",
      "source": "https://sketchfab.com/3d-models/blinky-from-pacman-47c0f24b17c943b790084545b0403047",
      "title": "Blinky from Pacman"
    },
    "generator": "Sketchfab-12.68.0",
    "version": "2.0"
  },
  "bufferViews": [
    {
      "buffer": 0,
      "byteLength": 45432,
      "name": "floatBufferViews",
      "target": 34963
    },
    {
      "buffer": 0,
      "byteLength": 66744,
      "byteOffset": 45432,
      "byteStride": 12,
      "name": "floatBufferViews",
      "target": 34962
    }
  ],
  "buffers": [
    {
      "byteLength": 112176,
      "uri": "scene.bin"
    }
  ],
  "materials": [
    {
      "doubleSided": true,
      "name": "color_14541540",
      "pbrMetallicRoughness": {
        "baseColorFactor": [
          0.866667,
          0.886275,
          0.894118,
          1.0
        ],
        "metallicFactor": 0.0
      }
    },
    {
      "doubleSided": true,
      "name": "color_15277357",
      "pbrMetallicRoughness": {
        "baseColorFactor": [
          0.913725,
          0.113725,
          0.176471,
          1.0
        ],
        "metallicFactor": 0.0
      }
    },
    {
      "doubleSided": true,
      "name": "color_30377",
      "pbrMetallicRoughness": {
        "baseColorFactor": [
          0.0,
          0.462745,
          0.662745,
          1.0
        ],
        "metallicFactor": 0.0
      }
    }
  ],
  "meshes": [
    {
      "name": "Object_0",
      "primitives": [
        {
          "attributes": {
            "NORMAL": 1,
            "POSITION": 0
          },
          "indices": 2,
          "material": 0,
          "mode": 4
        }
      ]
    },
    {
      "name": "Object_1",
      "primitives": [
        {
          "attributes": {
            "NORMAL": 4,
            "POSITION": 3
          },
          "indices": 5,
          "material": 1,
          "mode": 4
        }
      ]
    },
    {
      "name": "Object_2",
      "primitives": [
        {
          "attributes": {
            "NORMAL": 7,
            "POSITION": 6
          },
          "indices": 8,
          "material": 2,
          "mode": 4
        }
      ]
    }
  ],
  "nodes": [
    {
      "children": [
        1
      ],
      "matrix": [
        -2.220446049250313e-16,
        -1.1102230246251565e-16,
        1.0,
        0.0,
        1.1102230246251565e-16,
        -1.0,
        0.0,
        0.0,
        1.0,
        -2.465190328815662e-32,
        1.1102230246251565e-16,
        0.0,
        31.778932571411133,
        -29.746458053588867,
        -2.0324747562408514,
        1.0
      ],
      "name": "Sketchfab_model"
    },
    {
      "children": [
        2,
        3,
        4
      ],
      "name": "tinker.obj.cleaner.materialmerger.gles"
    },
    {
      "mesh": 0,
      "name": "Object_2"
    },
    {
      "mesh": 1,
      "name": "Object_3"
    },
    {
      "mesh": 2,
      "name": "Object_4"
    }
  ],
  "scene": 0,
  "scenes": [
    {
      "name": "Sketchfab_Scene",
      "nodes": [
        0
      ]
    }
  ]
}
